<?xml version="1.0" encoding="UTF-8"?>
<svg version="1.1" xmlns="http://www.w3.org/2000/svg" width="1563" height="1563">
<path d="M0 0 C-1.48634837 3.59937335 -3.48276103 5.50383652 -6.4375 8 C-16.36315671 16.75793239 -24.33438175 26.55942334 -32.15234375 37.16796875 C-35.9173177 42.26723637 -39.89566866 47.17049537 -44 52 C-44.73863281 52.87398437 -45.47726562 53.74796875 -46.23828125 54.6484375 C-55.33800731 65.11547991 -65.77563509 73.76399223 -80.04516602 75.20678711 C-82.11792171 75.30262126 -84.17513478 75.32810771 -86.25 75.3125 C-87.3493689 75.30947876 -87.3493689 75.30947876 -88.47094727 75.30639648 C-95.50537517 75.17813472 -102.64289954 74.17855023 -109 71 C-111.94289406 81.94512874 -111.94289406 81.94512874 -109.5 92.4375 C-109.005 92.953125 -108.51 93.46875 -108 94 C-108 94.66 -108 95.32 -108 96 C-96.24835568 98.83833506 -84.86207491 99.61630531 -72.8125 100 C-53.69948907 100.61487663 -35.37120778 102.88257056 -16.75 107.3125 C-15.79267471 107.53835281 -15.79267471 107.53835281 -14.81600952 107.76876831 C3.52019726 112.11842245 25.5336612 117.86715615 36.6640625 134.484375 C42.49102579 145.45678541 42.39323873 156.90254456 42.625 169 C42.66329487 170.59767483 42.70235269 172.19533157 42.7421875 173.79296875 C42.98847717 184.19611673 43.04496694 194.59431649 43 205 C44.63388672 205.19529297 44.63388672 205.19529297 46.30078125 205.39453125 C51.80493796 206.29542279 54.79359696 208.49199621 58.25 212.8125 C62.57001499 220.68109874 62.335324 228.1808075 62.3125 237 C62.32861328 238.24523437 62.34472656 239.49046875 62.36132812 240.7734375 C62.36614827 249.81603489 61.54270602 256.27035952 55 263 C51.1961651 265.34704706 48.47413897 266.39477697 44 266 C43.67 264.68 43.34 263.36 43 262 C42.98598145 263.41140259 42.98598145 263.41140259 42.97167969 264.85131836 C42.58170416 296.08185845 39.95494607 324.2787219 16.44384766 347.61572266 C-16.3162899 379.02424142 -69.74684091 385.03433325 -113.12109375 385.203125 C-114.33187088 385.21009399 -115.54264801 385.21706299 -116.79011536 385.22424316 C-120.67261269 385.24153167 -124.55496579 385.24796192 -128.4375 385.25 C-129.0978978 385.25058914 -129.75829559 385.25117828 -130.43870544 385.25178528 C-150.14366924 385.26420026 -169.4869478 384.9739058 -189 382 C-189.99531738 381.86078125 -190.99063477 381.7215625 -192.01611328 381.578125 C-215.62580188 378.24444777 -237.71553597 371.72297733 -259 361 C-259 360.34 -259 359.68 -259 359 C-259.72574219 358.74476563 -260.45148437 358.48953125 -261.19921875 358.2265625 C-266.12394715 356.06984741 -269.94811793 352.47926587 -274 349 C-274.68449219 348.41347656 -275.36898437 347.82695313 -276.07421875 347.22265625 C-291.11062441 333.2842437 -299.98181586 312.47197996 -301.23754883 292.15698242 C-301.29269157 288.30840756 -301.26391381 284.47312126 -301.1875 280.625 C-301.17239296 279.29168216 -301.15871542 277.95834733 -301.14648438 276.625 C-301.11160627 273.41621435 -301.06260026 270.2083437 -301 267 C-301.90709717 266.82368042 -301.90709717 266.82368042 -302.83251953 266.64379883 C-303.63286621 266.47904053 -304.43321289 266.31428223 -305.2578125 266.14453125 C-306.04816895 265.98573486 -306.83852539 265.82693848 -307.65283203 265.66333008 C-312.51238744 264.28997746 -315.93062184 261.46148348 -318.875 257.4375 C-321.79776735 251.1048374 -321.18388877 244.5380087 -321.1875 237.6875 C-321.19974609 236.47642578 -321.21199219 235.26535156 -321.22460938 234.01757812 C-321.23650778 226.77144862 -321.21879027 220.72756765 -317.4375 214.375 C-314.10833263 211.13119589 -310.34901701 208.68194028 -306 207 C-305.01 207.33 -304.02 207.66 -303 208 C-302.67 208.99 -302.34 209.98 -302 211 C-301.98604691 210.312547 -301.97209381 209.62509399 -301.9577179 208.91680908 C-301.82094073 202.38585919 -301.66122015 195.85590087 -301.476758 189.32611465 C-301.38273793 185.9702155 -301.29964239 182.61488821 -301.23168945 179.25830078 C-301.15180171 175.38482503 -301.04155906 171.51317479 -300.92578125 167.640625 C-300.89886955 165.86332001 -300.89886955 165.86332001 -300.87141418 164.05010986 C-300.38371842 150.02958412 -294.50163848 138.4173504 -284.56640625 128.59375 C-250.10762728 98.69192694 -189.58581836 94.68585472 -146 96 C-146.33 97.155 -146.66 98.31 -147 99.5 C-149.92267494 112.94854049 -148.52760458 126.00130568 -141.25 137.8125 C-136.86403904 143.93063795 -131.42287684 148.18641688 -125 152 C-125 152.66 -125 153.32 -125 154 C-136.16913463 155.03898927 -147.48805318 149.96432013 -156 143 C-156.35199463 142.39752441 -156.70398926 141.79504883 -157.06665039 141.17431641 C-158.538895 138.78972404 -159.60711727 137.49751932 -162 136 C-167.60607226 135.51608242 -173.0031569 136.2710414 -178.5625 137 C-180.06275535 137.17146702 -181.56341126 137.33946673 -183.06445312 137.50390625 C-185.99059291 137.82773831 -188.91382545 138.16916782 -191.83642578 138.5234375 C-197.54371157 139.19914993 -203.26590441 139.61843821 -209 140 C-209 140.66 -209 141.32 -209 142 C-209.58265625 142.12004395 -210.1653125 142.24008789 -210.765625 142.36376953 C-238.94165756 147.47878534 -238.94165756 147.47878534 -261 164 C-262.48254088 166.96508176 -262.13358721 169.97554305 -262.12025452 173.2258606 C-262.12153615 174.35548432 -262.12153615 174.35548432 -262.12284368 175.50792873 C-262.12449764 178.04453488 -262.11897848 180.58107567 -262.11352539 183.11767578 C-262.11324347 184.9307556 -262.11340134 186.74383553 -262.1139679 188.55691528 C-262.1142557 193.49053374 -262.10836173 198.42412805 -262.10139394 203.35774088 C-262.09515755 208.50939723 -262.09455637 213.66105408 -262.09336853 218.81271362 C-262.09025606 228.57329296 -262.08204379 238.33386115 -262.07201904 248.09443557 C-262.0608553 259.20430534 -262.05534679 270.31417564 -262.05032361 281.42404962 C-262.03986112 304.28270594 -262.02226329 327.14135234 -262 350 C-260.71593032 347.91862631 -259.43249298 345.83686715 -258.14941406 343.75488281 C-257.78788239 343.16901398 -257.42635071 342.58314514 -257.05386353 341.97952271 C-255.20542146 338.97906515 -253.37676171 335.97079392 -251.609375 332.921875 C-250.99578125 331.87515625 -250.3821875 330.8284375 -249.75 329.75 C-249.12609375 328.67234375 -248.5021875 327.5946875 -247.859375 326.484375 C-246 324 -246 324 -244.0859375 322.94921875 C-241.02054672 323.02384437 -239.40876084 324.36249807 -236.875 326.0625 C-188.16534487 355.73755689 -105.61348522 349.92788657 -52.98046875 337.65234375 C-35.51731408 333.28544335 -15.79616207 327.55437054 -5.5625 311.6875 C1.29785086 299.55536313 3.13930306 288.97019721 3.19287109 275.2565918 C3.20104858 274.0914505 3.20922607 272.9263092 3.21765137 271.7258606 C3.24239282 267.88365176 3.25899012 264.04147951 3.2734375 260.19921875 C3.27876118 258.88317972 3.28408485 257.56714069 3.28956985 256.21122169 C3.31116674 250.67878375 3.329901 245.14634852 3.34119225 239.6138792 C3.35742345 231.71679685 3.39061704 223.82020684 3.44759309 215.92330998 C3.48640617 210.35193353 3.50583798 204.78068819 3.51111281 199.20918018 C3.51474937 195.8898822 3.52912974 192.5712293 3.55921555 189.2520504 C3.5909094 185.54485196 3.59089685 181.83889071 3.58349609 178.1315918 C3.6081041 176.50485786 3.6081041 176.50485786 3.63320923 174.84526062 C3.55916851 165.75098116 0.95475097 158.7073747 -5.5 152.1875 C-13.5763156 145.76281367 -23.47466352 143.56044695 -33.515625 142.359375 C-36 142 -36 142 -37 141 C-39.03174076 140.89189321 -41.06722383 140.85370252 -43.10180664 140.84228516 C-44.41149918 140.83202301 -45.72119171 140.82176086 -47.0705719 140.81118774 C-48.12959308 140.80603086 -48.12959308 140.80603086 -49.21000862 140.80076981 C-51.42829897 140.78896596 -53.6463959 140.76949867 -55.86460876 140.74765015 C-62.17472652 140.68616149 -68.48483485 140.63244778 -74.79516602 140.59863281 C-78.65446315 140.57739673 -82.51342423 140.54184851 -86.37252617 140.49787521 C-87.83016366 140.48391369 -89.2878608 140.47503882 -90.7455616 140.47182083 C-104.39704376 140.43856116 -120.10620527 140.24008775 -131 131 C-137.76305029 123.79256037 -138.21866064 118.27664626 -138.16796875 108.57421875 C-137.95979949 104.14457047 -137.1768489 100.26607728 -136 96 C-135.34 96 -134.68 96 -134 96 C-133.89429688 94.99710938 -133.78859375 93.99421875 -133.6796875 92.9609375 C-133.09534599 88.93120522 -131.76965866 85.33426005 -130.125 81.625 C-129.82327881 80.94091064 -129.52155762 80.25682129 -129.21069336 79.55200195 C-125.35169453 71.15603342 -120.2449441 63.58016968 -115 56 C-113.92685547 54.43378906 -113.92685547 54.43378906 -112.83203125 52.8359375 C-102.25850404 37.85149774 -90.14972898 26.54027455 -74 18 C-94.35711723 24.83147779 -110.74426343 37.18765541 -125.515625 52.5078125 C-126.33546875 53.33023438 -127.1553125 54.15265625 -128 55 C-128.33 55 -128.66 55 -129 55 C-129.23181403 49.72963977 -128.50592066 45.2887895 -126.875 40.3125 C-126.53722534 39.26811768 -126.53722534 39.26811768 -126.19262695 38.20263672 C-122.5669258 27.36655079 -117.4541541 18.64271016 -110 10 C-109.46890625 9.31292969 -108.9378125 8.62585938 -108.390625 7.91796875 C-82.11193243 -25.06048949 -31.69493199 -21.87878202 0 0 Z " fill="#709A14" transform="translate(897,543)"/>
<path d="M0 0 C36.3515625 -0.12375 36.3515625 -0.12375 73.4375 -0.25 C81.06157959 -0.28641602 88.68565918 -0.32283203 96.54077148 -0.36035156 C105.92199707 -0.37841797 105.92199707 -0.37841797 110.32752991 -0.3817749 C113.37440379 -0.38546956 116.42099284 -0.40032957 119.4677887 -0.42230225 C145.54847941 -0.60207139 168.45639423 -0.29387473 188.1953125 19.1640625 C198.39926164 30.14397735 204.014098 42.96499447 205 58 C205.09474609 59.16982422 205.09474609 59.16982422 205.19140625 60.36328125 C205.88731159 75.51605887 200.50722049 89.85638703 190.6875 101.25 C186.49478462 105.70476009 181.95327516 109.42947469 177 113 C175.66528482 113.99815488 174.33153586 114.99760784 173 116 C173.65484375 116.30550781 174.3096875 116.61101562 174.984375 116.92578125 C191.4554422 125.18457907 202.559093 138.79101319 209 156 C213.83959474 172.59854469 212.08111514 191.38588649 204.3125 206.75 C194.78748597 222.83243574 181.73296611 233.35437412 163.60046387 238.1473999 C155.38883169 240.20238084 147.38510276 240.5431888 138.95507812 240.45410156 C137.40122264 240.45287206 135.84736493 240.45341725 134.29351044 240.45556259 C130.18575151 240.4564543 126.07847227 240.43351449 121.9708252 240.40512085 C118.09609707 240.38209738 114.22147721 240.38125533 110.34667969 240.37841797 C99.06439122 240.35754782 87.7821893 240.30170279 76.5 240.25 C51.255 240.1675 26.01 240.085 0 240 C0 160.8 0 81.6 0 0 Z M59 49 C59 64.18 59 79.36 59 95 C71.24605714 95.11645889 71.24605714 95.11645889 83.4921875 95.1953125 C88.49138498 95.21916892 93.49028774 95.24730654 98.48925781 95.30175781 C102.52228513 95.34540966 106.55499614 95.36917763 110.58824158 95.37950897 C112.12235997 95.38686585 113.65646222 95.40123192 115.19044495 95.42292023 C124.59941719 95.55058689 131.84271061 95.51936683 139.2421875 89.03515625 C139.78101563 88.38417969 140.31984375 87.73320313 140.875 87.0625 C141.42929687 86.41410156 141.98359375 85.76570312 142.5546875 85.09765625 C146.67977895 79.11069919 146.71608142 73.05064788 146 66 C144.22657567 59.35527086 139.5533353 54.82632041 134 51 C129.89833831 48.9881784 126.55119294 48.75657228 122.0065918 48.77294922 C120.98137169 48.77251114 120.98137169 48.77251114 119.93544006 48.77206421 C117.68990109 48.77345083 115.44469933 48.78898013 113.19921875 48.8046875 C111.63694948 48.80842001 110.07467785 48.81126586 108.5124054 48.81326294 C104.41064941 48.82088065 100.3090362 48.84051304 96.20733643 48.8626709 C91.28054505 48.88677679 86.35370579 48.89591919 81.42687225 48.90757751 C73.95114902 48.92693862 66.47573876 48.96527399 59 49 Z M59 142 C59 158.5 59 175 59 192 C72.0858841 192.145622 72.0858841 192.145622 85.171875 192.24414062 C90.51555452 192.27393838 95.85880244 192.30904704 101.20214844 192.37719727 C105.51400583 192.4318425 109.8253999 192.46148839 114.13757706 192.47438622 C115.77612722 192.48356819 117.41465431 192.50149774 119.05300522 192.52865028 C129.38035241 192.69287541 138.06431404 192.34341279 146.12545776 185.08662415 C151.18939662 179.95398861 153.73371112 174.48794192 154.16015625 167.30078125 C153.88278753 159.34584629 150.87927092 154.18250234 145.55078125 148.4375 C137.07572587 140.63580518 126.71805238 141.59999837 116.03125 141.70703125 C114.38358956 141.71263405 112.73592408 141.71690091 111.08825684 141.71989441 C106.7743931 141.73128944 102.46083759 141.76070988 98.14709473 141.79400635 C92.95912037 141.83025159 87.77104232 141.84389387 82.58297729 141.86136627 C74.7217712 141.89035105 66.86123999 141.94787488 59 142 Z " fill="#0377AA" transform="translate(351,654)"/>
<path d="M0 0 C19.14 0 38.28 0 58 0 C58.01458252 4.7339209 58.02916504 9.4678418 58.04418945 14.34521484 C58.09454132 29.99147694 58.1609881 45.63764017 58.23571491 61.28380394 C58.28062627 70.76943219 58.32005165 80.25502329 58.34643555 89.74072266 C58.3694534 98.01118839 58.40289364 106.28153609 58.44870156 114.55190814 C58.47258278 118.92853761 58.49134492 123.30505054 58.49761391 127.68174362 C58.50368792 131.80713031 58.52377081 135.93221902 58.55427551 140.05749512 C58.56301877 141.56585237 58.56678607 143.07424862 58.56500816 144.58263016 C58.55385746 158.41675668 60.83494324 170.76210052 70.19140625 181.51953125 C79.7715308 190.79210766 90.86917128 194.3125 103.98925781 194.3125 C115.73503626 194.06343289 125.40089693 189.95245052 134 182 C142.33186116 172.78375134 146.08855133 160.80558603 146.15821838 148.514328 C146.1680072 147.2032608 146.17779602 145.8921936 146.18788147 144.54139709 C146.19378494 143.0955509 146.19959543 141.64970433 146.20532227 140.20385742 C146.21490606 138.67604307 146.22491643 137.14823134 146.23532104 135.62042236 C146.2623219 131.47830538 146.28335752 127.33617706 146.30332303 123.19402099 C146.32521235 118.86315716 146.35258661 114.53232808 146.37937927 110.20149231 C146.42926634 102.00288142 146.47421995 93.80425121 146.51740164 85.60560256 C146.56680809 76.2706957 146.62171357 66.93582371 146.67708123 57.6009506 C146.79084009 38.40066469 146.89696648 19.20034667 147 0 C166.14 0 185.28 0 205 0 C205.06798231 19.733695 205.12313521 39.46729372 205.15543652 59.20107651 C205.17083986 68.36586479 205.1918028 77.53057461 205.22631836 86.6953125 C205.25642252 94.69259393 205.27562233 102.68981848 205.28226548 110.68715501 C205.28614254 114.91325066 205.29511396 119.13918373 205.31719017 123.36522675 C205.49111965 158.04821462 203.7236054 189.72060153 178.1875 216.1875 C173.16712242 221.03873775 167.79126932 225.11673958 162 229 C161.24589844 229.53367187 160.49179687 230.06734375 159.71484375 230.6171875 C151.85579508 235.82060566 142.98820439 238.43504449 134 241 C132.8140625 241.34417969 131.628125 241.68835938 130.40625 242.04296875 C111.97573337 246.38555729 88.21078676 246.23612691 70 241 C68.73929687 240.64808594 67.47859375 240.29617188 66.1796875 239.93359375 C53.78268202 236.24833473 42.8130443 230.4036304 33 222 C32.18917969 221.33355469 31.37835938 220.66710937 30.54296875 219.98046875 C12.66061974 204.73514816 2.82444403 183.0882472 0 160 C-0.2660116 154.64816182 -0.25422387 149.30645062 -0.22705078 143.95019531 C-0.22648537 142.37209073 -0.22680576 140.79398563 -0.22793579 139.21588135 C-0.22850524 134.96874639 -0.21681763 130.7217264 -0.20278788 126.47461796 C-0.1902119 122.022371 -0.18910464 117.57012087 -0.18673706 113.11785889 C-0.18054235 104.70339951 -0.16415895 96.28899265 -0.14403808 87.8745563 C-0.12161626 78.28801074 -0.11066991 68.70146255 -0.10064721 59.11489725 C-0.07979076 39.40989576 -0.04313987 19.70496617 0 0 Z " fill="#0377AA" transform="translate(107,654)"/>
<path d="M0 0 C17.19511002 -0.09060329 34.39001349 -0.16415716 51.58529663 -0.20724869 C59.5709493 -0.2277965 67.55644216 -0.25576643 75.54199219 -0.30175781 C82.50938535 -0.34186587 89.47666267 -0.36748922 96.44416809 -0.37635398 C100.12694662 -0.3815286 103.80939399 -0.39352404 107.49206543 -0.42292023 C145.51672944 -0.71438975 145.51672944 -0.71438975 160 10 C160.63164063 10.45117188 161.26328125 10.90234375 161.9140625 11.3671875 C172.57472584 19.67968711 177.85417271 32.0008009 179.6796875 45.078125 C181.18137615 58.77645562 178.49629559 72.8923708 170 84 C164.30009693 91.03462125 157.8289434 97.08158238 151 103 C149.66650993 104.16648752 148.33316715 105.33314344 147 106.5 C146.360625 107.056875 145.72125 107.61375 145.0625 108.1875 C142.69035571 110.27211164 140.34443935 112.38428644 138 114.5 C132.67665307 119.29907792 127.31136661 124.0407795 121.84765625 128.6796875 C115.89486928 133.74093768 110.01970495 138.8496049 104.3125 144.1875 C100.50000456 147.75329112 96.63965442 151.17100786 92.5625 154.4375 C86.8585514 159.01566927 81.56518715 163.98061611 76.234375 168.98046875 C73.71373491 171.34302246 71.16399393 173.66371364 68.5625 175.9375 C67.96566406 176.45957031 67.36882812 176.98164062 66.75390625 177.51953125 C65.51417233 178.56598816 64.24809553 179.58160749 62.96484375 180.57421875 C59.04677098 183.45590505 59.04677098 183.45590505 57.5625 187.875 C57.706875 188.57625 57.85125 189.2775 58 190 C60.4581051 191.22905255 62.08449147 191.13829342 64.83413696 191.15821838 C66.36542992 191.17290161 66.36542992 191.17290161 67.92765808 191.18788147 C69.05190689 191.19363693 70.1761557 191.1993924 71.33447266 191.20532227 C72.51494675 191.21522186 73.69542084 191.22512146 74.91166687 191.23532104 C78.15316782 191.26154157 81.39466343 191.28339011 84.63620806 191.30332303 C88.02217815 191.32516848 91.40810314 191.3525642 94.79403687 191.37937927 C101.20777728 191.42932569 107.6215427 191.47425727 114.03533208 191.51740164 C121.33635754 191.56675738 128.63733774 191.62168166 135.93831944 191.67708123 C150.95883897 191.79093119 165.97940122 191.89702847 181 192 C181 207.84 181 223.68 181 240 C162.56236111 240.06785196 144.12482409 240.12306014 125.68709183 240.15543652 C117.12517053 240.17087235 108.56333261 240.19189868 100.00146484 240.22631836 C92.53456747 240.25632169 85.06773051 240.27559884 77.60077453 240.28226548 C73.65103276 240.28615932 69.70146377 240.29524096 65.75177765 240.31719017 C62.02535436 240.33772861 58.29917311 240.34379922 54.57269859 240.33932304 C52.5711036 240.34052694 50.56953425 240.35657742 48.56800842 240.3732605 C32.19787896 240.31791149 19.21148608 235.72975831 7.2265625 224.4296875 C3.75920964 220.64601473 1.3022886 216.56633321 -1 212 C-1.5775 210.865625 -2.155 209.73125 -2.75 208.5625 C-7.94664789 193.75205352 -7.32227714 178.17501608 -0.875 163.875 C2.18581072 158.13137025 6.47651031 153.62505336 11 149 C11.61230469 148.360625 12.22460938 147.72125 12.85546875 147.0625 C16.35337299 143.47654783 20.04025261 140.15386332 23.83203125 136.8828125 C26.24842951 134.7842468 28.62529024 132.645603 31 130.5 C33.98062721 127.81016569 36.97245233 125.13689636 40 122.5 C44.71701284 118.38918961 49.35638889 114.19332155 54 110 C63.48872041 101.43139793 63.48872041 101.43139793 67.9375 97.5625 C71.16559512 94.75177475 74.33738443 91.884201 77.5 89 C83.71158789 83.33998754 90.0402709 77.82799977 96.39941406 72.33520508 C98.36136349 70.63680471 100.3175459 68.93193247 102.2734375 67.2265625 C104.56594341 65.23016704 106.87765799 63.26555296 109.2265625 61.3359375 C110.14179687 60.56507813 111.05703125 59.79421875 112 59 C112.804375 58.34 113.60875 57.68 114.4375 57 C116.29570846 55.06919112 116.29570846 55.06919112 115.875 52.3125 C115.23669149 49.83572904 115.23669149 49.83572904 113 49 C111.49251731 48.8960467 109.98059113 48.85350791 108.46957397 48.84178162 C107.03925087 48.82709839 107.03925087 48.82709839 105.58003235 48.81211853 C104.53058945 48.80636307 103.48114655 48.8006076 102.39990234 48.79467773 C101.29745682 48.78477814 100.19501129 48.77487854 99.05915833 48.76467896 C95.40144018 48.73299617 91.74370902 48.70827973 88.0859375 48.68359375 C85.55530452 48.66303008 83.02467501 48.64203377 80.49404907 48.62062073 C74.50529782 48.57099511 68.51652884 48.52574554 62.52772868 48.48259836 C55.71036789 48.43323882 48.89305551 48.37831595 42.07574153 48.32291877 C28.05053773 48.20907563 14.02528758 48.10297617 0 48 C0 32.16 0 16.32 0 0 Z " fill="#0477AA" transform="translate(1172,654)"/>
<path d="M0 0 C62.04 0 124.08 0 188 0 C188 16.17 188 32.34 188 49 C166.88 49 145.76 49 124 49 C124.06143821 71.75695348 124.06143821 71.75695348 124.16015625 94.51367188 C124.20869791 103.79483819 124.25314087 113.07589487 124.27099609 122.35717773 C124.2840193 129.11694447 124.3110008 135.87648819 124.35461307 142.63612932 C124.37721316 146.2140238 124.39291158 149.79164337 124.39188385 153.36961555 C124.3909973 157.36790016 124.42127873 161.36537535 124.45410156 165.36352539 C124.4490712 166.54460373 124.44404083 167.72568207 124.43885803 168.94255066 C124.53968536 176.87846073 125.58992527 181.49520097 131.25 187.3125 C140.24790291 192.83394042 152.10825747 191.50541287 162 192 C162 207.84 162 223.68 162 240 C156.43125 240.04125 150.8625 240.0825 145.125 240.125 C142.52069092 240.15231201 142.52069092 240.15231201 139.86376953 240.18017578 C117.95287291 240.31655098 99.13111489 233.34863544 83 218 C81.94378251 216.36838044 80.94370126 214.69917795 80 213 C79.45601562 212.18402344 78.91203125 211.36804688 78.3515625 210.52734375 C64.96266925 190.44400387 64.54530385 170.53539509 64.69581819 147.13656044 C64.71481345 143.675979 64.71635313 140.21538627 64.71989441 136.75476074 C64.7291488 130.228057 64.75367109 123.70150741 64.78394288 117.17487097 C64.82101784 109.00072502 64.83724217 100.82655304 64.85351562 92.65234375 C64.88257439 78.101443 64.94269637 63.55087769 65 49 C43.55 49 22.1 49 0 49 C0 32.83 0 16.66 0 0 Z " fill="#0377AA" transform="translate(963,654)"/>
<path d="M0 0 C-0.53940367 2.69701834 -1.35524134 4.73890199 -2.5625 7.25 C-4.58219851 11.9393 -4.90929279 16.31611965 -3.2734375 21.14453125 C-0.26333336 27.73984072 4.27230389 31.30892156 11 34 C15.76486758 34.70590631 18.282449 34.03845234 22.1875 31.4375 C22.82042969 30.96183594 23.45335937 30.48617187 24.10546875 29.99609375 C26 29 26 29 28.23828125 29.34765625 C28.81964844 29.56292969 29.40101563 29.77820313 30 30 C31.68962708 43.39487492 30.94495729 55.22430027 22.9375 66.6015625 C16.27872597 74.84448035 6.68484129 81.49000707 -4 83 C-17.34364768 84.1793628 -28.13469504 80.91796791 -38.84765625 72.87890625 C-45.89943372 66.72299887 -51.34944569 57.43785474 -52.17700195 47.97631836 C-52.57582678 34.07147344 -51.85717737 22.7202482 -42 12 C-30.59314876 0.45115476 -15.94642209 -3.57864051 0 0 Z " fill="#709A14" transform="translate(839,735)"/>
<path d="M0 0 C1.60294922 0.01353516 1.60294922 0.01353516 3.23828125 0.02734375 C4.04652344 0.03894531 4.85476563 0.05054688 5.6875 0.0625 C5.1196731 2.66458056 4.56455421 4.25921326 3.125 6.5625 C1.01281084 11.70522144 0.97341071 16.57528758 1.6875 22.0625 C2.76652342 24.50081267 3.94959536 25.99873824 5.6875 28.0625 C5.6875 28.7225 5.6875 29.3825 5.6875 30.0625 C6.22375 30.330625 6.76 30.59875 7.3125 30.875 C9.07180068 31.75465034 10.7968798 32.703475 12.5 33.6875 C16.36407068 35.35435402 18.50616097 35.62946122 22.6875 35.0625 C28.34484064 32.73244275 32.02668769 29.99051657 35.6875 25.0625 C36.6775 25.0625 37.6675 25.0625 38.6875 25.0625 C42.54643841 38.69227046 42.18438944 52.20600859 35.21484375 64.703125 C29.52484585 73.68874815 19.81187401 81.00047614 9.37890625 83.6484375 C-4.70947962 85.81588148 -16.01273625 82.72222093 -27.4453125 74.53515625 C-36.99042038 66.82285426 -40.95855679 57.10614724 -42.3125 45.0625 C-42.74778868 32.95356033 -39.92112468 22.84840258 -31.9375 13.625 C-22.85916454 4.27701101 -13.19180379 -0.14496488 0 0 Z " fill="#709A14" transform="translate(707.3125,733.9375)"/>
<path d="M0 0 C2.99167425 0.62326547 4.94230873 1.30221206 7.0390625 3.5859375 C8.95053667 7.64199244 8.67474037 12.22761652 8.76171875 16.640625 C8.84035156 17.62546875 8.91898438 18.6103125 9 19.625 C9.66 19.955 10.32 20.285 11 20.625 C10.97679687 19.66078125 10.95359375 18.6965625 10.9296875 17.703125 C10.90261719 15.80820312 10.90261719 15.80820312 10.875 13.875 C10.85179687 12.62203125 10.82859375 11.3690625 10.8046875 10.078125 C10.98587104 6.87479998 11.23719829 5.24097265 13 2.625 C15.67633026 0.5434098 17.11753668 0.62912409 20.5625 0.75 C24 1.625 24 1.625 25.6965332 3.38183594 C27.20301886 5.97437953 27.35017885 7.41569998 27.29296875 10.390625 C27.2784668 11.72480469 27.2784668 11.72480469 27.26367188 13.0859375 C27.23853516 14.00632812 27.21339844 14.92671875 27.1875 15.875 C27.16719727 17.27878906 27.16719727 17.27878906 27.14648438 18.7109375 C27.11119954 21.01621327 27.06190281 23.3203106 27 25.625 C25.02 25.625 23.04 25.625 21 25.625 C20.67 19.685 20.34 13.745 20 7.625 C19.34 7.295 18.68 6.965 18 6.625 C18.02320313 7.58921875 18.04640625 8.5534375 18.0703125 9.546875 C18.09738281 11.44179688 18.09738281 11.44179688 18.125 13.375 C18.14820313 14.62796875 18.17140625 15.8809375 18.1953125 17.171875 C18.01412896 20.37520002 17.76280171 22.00902735 16 24.625 C13.30412197 26.72179403 11.907056 26.62010821 8.4375 26.4375 C3.87438933 25.35894657 3.87438933 25.35894657 2 22.625 C1.67537159 20.02222711 1.48894573 17.60658355 1.4375 15 C1.37513032 12.51445287 1.23383109 10.10538549 1 7.625 C0.34 7.295 -0.32 6.965 -1 6.625 C-1 12.895 -1 19.165 -1 25.625 C-3.31 25.625 -5.62 25.625 -8 25.625 C-8.14584064 22.39631254 -8.23424106 19.16847635 -8.3125 15.9375 C-8.35439453 15.02548828 -8.39628906 14.11347656 -8.43945312 13.17382812 C-8.52421637 8.51184962 -8.54399409 6.34941425 -5.66796875 2.51953125 C-3 0.625 -3 0.625 0 0 Z " fill="#709A14" transform="translate(1115,953.375)"/>
<path d="M0 0 C2.05938216 1.57885966 2.84571211 2.69142423 4 5 C4.07116382 7.37402501 4.08409085 9.75000677 4.0625 12.125 C4.05347656 13.40632812 4.04445313 14.68765625 4.03515625 16.0078125 C4.02355469 16.99523437 4.01195312 17.98265625 4 19 C4.66 18.67 5.32 18.34 6 18 C6.17926852 15.75473532 6.26811465 13.50197261 6.3125 11.25 C6.78552712 3.24116155 6.78552712 3.24116155 9.1875 0.625 C12.52410693 -1.30281734 14.20920657 -1.64524143 18 -1 C21.1359157 0.77984405 21.84102736 1.52308207 23 5 C23.0806622 6.48123547 23.10761193 7.96582204 23.09765625 9.44921875 C23.09443359 10.29677734 23.09121094 11.14433594 23.08789062 12.01757812 C23.07532227 13.33918945 23.07532227 13.33918945 23.0625 14.6875 C23.05798828 15.58017578 23.05347656 16.47285156 23.04882812 17.39257812 C23.03704983 19.59511987 23.02060164 21.79752599 23 24 C20.69 24 18.38 24 16 24 C16 17.73 16 11.46 16 5 C15.01 5.495 15.01 5.495 14 6 C13.76940735 9.13379195 13.68232397 12.22449935 13.69726562 15.36523438 C13.58471584 19.07937734 13.26820395 20.70933111 10.71484375 23.4765625 C7.9932202 25.00380449 6.90140346 25.49569108 3.875 25.0625 C3.21242188 24.99160156 2.54984375 24.92070313 1.8671875 24.84765625 C-1.03600584 23.52967936 -1.73265592 21.88564498 -3 19 C-3.29296875 15.44921875 -3.29296875 15.44921875 -3.1875 11.6875 C-3.16042969 10.43324219 -3.13335938 9.17898438 -3.10546875 7.88671875 C-3.07066406 6.93410156 -3.03585937 5.98148438 -3 5 C-3.99 5.495 -3.99 5.495 -5 6 C-5.33 11.94 -5.66 17.88 -6 24 C-7.98 24 -9.96 24 -12 24 C-12.14539953 20.58378212 -12.23409725 17.16836009 -12.3125 13.75 C-12.35439453 12.78191406 -12.39628906 11.81382812 -12.43945312 10.81640625 C-12.56289343 3.65686882 -12.56289343 3.65686882 -9.70703125 0.32421875 C-6.02524173 -1.47682981 -3.90277181 -1.08410328 0 0 Z " fill="#709A14" transform="translate(537,955)"/>
<path d="M0 0 C3.36239915 1.20538837 5.34391347 2.21894461 7.640625 4.953125 C9.6520574 9.46150798 9.4742504 13.68137824 9.4375 18.5625 C9.4674707 19.98079102 9.4674707 19.98079102 9.49804688 21.42773438 C9.49319274 28.29633647 9.49319274 28.29633647 7.16015625 31.625 C4.21594947 33.49907014 2.42882961 33.50003765 -1 33 C-3.375 31.8125 -3.375 31.8125 -5 30 C-5.25 27.3125 -5.25 27.3125 -5 25 C-5.886875 24.938125 -6.77375 24.87625 -7.6875 24.8125 C-11.95682663 23.76530668 -13.41228531 22.54886586 -16 19 C-17.32763312 14.57727126 -17.34712871 11.0822248 -15.9375 6.6875 C-11.69201609 0.79860296 -7.00802892 -1.1470227 0 0 Z M-8.3125 7.5625 C-10.36113011 10.00322397 -10.36113011 10.00322397 -9.875 13.625 C-9.29259286 17.04542055 -9.29259286 17.04542055 -7 19 C-3.72640914 19.51688277 -2.42227885 19.29673649 0.3125 17.375 C2.22130921 15.05764184 2.22130921 15.05764184 2.5 11.9375 C2.267128 8.94165693 2.267128 8.94165693 0.25 7.125 C-3.10616377 5.44691812 -5.20171292 5.46061684 -8.3125 7.5625 Z M2 22 C1.67 23.65 1.34 25.3 1 27 C1.66 26.67 2.32 26.34 3 26 C2.67 24.68 2.34 23.36 2 22 Z " fill="#6F9A14" transform="translate(881,954)"/>
<path d="M0 0 C2.98752603 0.62240126 4.94046879 1.29691461 7.03125 3.58203125 C9.33558817 8.44158312 8.92129955 14.33776082 9 19.625 C9.33 19.625 9.66 19.625 10 19.625 C10.33 13.685 10.66 7.745 11 1.625 C13.31 1.625 15.62 1.625 18 1.625 C18.08120751 4.52140118 18.14059421 7.41550912 18.1875 10.3125 C18.21263672 11.12912109 18.23777344 11.94574219 18.26367188 12.78710938 C18.32173421 17.5675753 18.16104605 20.77132382 15 24.625 C11.50875983 26.95249345 10.10777749 27.12799316 6 26.625 C3.15219381 24.39293569 2.15002334 23.07507001 1 19.625 C0.93062938 17.39681559 0.91542916 15.16665476 0.9375 12.9375 C0.94652344 11.75800781 0.95554687 10.57851563 0.96484375 9.36328125 C0.97644531 8.45964844 0.98804688 7.55601562 1 6.625 C0.34 6.625 -0.32 6.625 -1 6.625 C-1.33 12.895 -1.66 19.165 -2 25.625 C-3.98 25.625 -5.96 25.625 -8 25.625 C-8.14584064 22.39631254 -8.23424106 19.16847635 -8.3125 15.9375 C-8.35439453 15.02548828 -8.39628906 14.11347656 -8.43945312 13.17382812 C-8.52421637 8.51184962 -8.54399409 6.34941425 -5.66796875 2.51953125 C-3 0.625 -3 0.625 0 0 Z " fill="#6F9A14" transform="translate(839,953.375)"/>
<path d="M0 0 C2.98752603 0.62240126 4.94046879 1.29691461 7.03125 3.58203125 C9.33558817 8.44158312 8.92129955 14.33776082 9 19.625 C9.33 19.625 9.66 19.625 10 19.625 C10.33 13.685 10.66 7.745 11 1.625 C13.31 1.625 15.62 1.625 18 1.625 C18.08120751 4.52140118 18.14059421 7.41550912 18.1875 10.3125 C18.21263672 11.12912109 18.23777344 11.94574219 18.26367188 12.78710938 C18.32173421 17.5675753 18.16104605 20.77132382 15 24.625 C11.50875983 26.95249345 10.10777749 27.12799316 6 26.625 C3.15219381 24.39293569 2.15002334 23.07507001 1 19.625 C0.93062938 17.39681559 0.91542916 15.16665476 0.9375 12.9375 C0.94652344 11.75800781 0.95554687 10.57851563 0.96484375 9.36328125 C0.97644531 8.45964844 0.98804688 7.55601562 1 6.625 C0.34 6.625 -0.32 6.625 -1 6.625 C-1.33 12.895 -1.66 19.165 -2 25.625 C-3.98 25.625 -5.96 25.625 -8 25.625 C-8.14584064 22.39631254 -8.23424106 19.16847635 -8.3125 15.9375 C-8.35439453 15.02548828 -8.39628906 14.11347656 -8.43945312 13.17382812 C-8.52421637 8.51184962 -8.54399409 6.34941425 -5.66796875 2.51953125 C-3 0.625 -3 0.625 0 0 Z " fill="#6F9A14" transform="translate(782,953.375)"/>
<path d="M0 0 C4.36045847 2.22136563 7.13277421 4.43567029 9 9 C9.53635899 13.82723092 9.52017901 15.97890786 7.3125 20.3125 C3.73770791 24.4669881 1.56223989 25.82641779 -3.9375 26.4375 C-8.20340057 26.26847375 -10.7139653 24.75109882 -14 22 C-17.33917083 18.23744148 -17.62294849 15.45767666 -17.4921875 10.546875 C-16.68046328 6.34652429 -14.29879887 3.6245918 -11 1 C-7.27148658 -0.24283781 -3.87253239 -0.5280726 0 0 Z M-8.25 7 C-10.61173184 9.6991221 -10.51860788 11.62370067 -10.3125 15.12109375 C-10.08193814 17.09923426 -10.08193814 17.09923426 -8.9375 19.0625 C-5.76026699 20.59987081 -3.32611047 19.8466463 0 19 C2.46943529 15.29584707 2.46913089 13.37855495 2 9 C0.36549876 6.94054984 0.36549876 6.94054984 -2 6 C-5.80116138 5.72924102 -5.80116138 5.72924102 -8.25 7 Z " fill="#6F9A14" transform="translate(1061,954)"/>
<path d="M0 0 C2.5575 -0.061875 5.115 -0.12375 7.75 -0.1875 C8.94834473 -0.22846802 8.94834473 -0.22846802 10.17089844 -0.27026367 C13.3233302 -0.30718762 15.63628085 -0.1879312 18.45703125 1.26953125 C20.54011634 3.60575074 20.8563232 5.93542169 21.12109375 9 C20.94700257 11.87531236 19.63200569 13.68799194 18 16 C18.33 16.66 18.66 17.32 19 18 C19.99 18.33 20.98 18.66 22 19 C22 20.65 22 22.3 22 24 C15.5075 24.3675 15.5075 24.3675 13.1875 22.6875 C12.10008964 21.14223264 11.04812103 19.57218154 10 18 C9.01 17.67 8.02 17.34 7 17 C7 19.31 7 21.62 7 24 C4.69 24 2.38 24 0 24 C0 16.08 0 8.16 0 0 Z M7 5 C7 7.31 7 9.62 7 12 C8.98 11.67 10.96 11.34 13 11 C13.33 9.68 13.66 8.36 14 7 C11.04622502 4.63019987 11.04622502 4.63019987 7 5 Z " fill="#709A14" transform="translate(1078,955)"/>
<path d="M0 0 C3.83625 -0.12375 3.83625 -0.12375 7.75 -0.25 C8.54889648 -0.28641602 9.34779297 -0.32283203 10.17089844 -0.36035156 C13.6965137 -0.41541155 15.61796855 -0.28925238 18.4609375 1.86328125 C20.27152648 4.37696696 20.84904129 5.90534653 21 9 C20.38325228 10.68577711 19.71727778 12.35448038 19 14 C19 15.32 19 16.64 19 18 C19.99 18.33 20.98 18.66 22 19 C22 20.65 22 22.3 22 24 C16.72240366 24.52775963 16.72240366 24.52775963 14 24 C11.6875 21.0625 11.6875 21.0625 10 18 C9.01 17.67 8.02 17.34 7 17 C7 19.31 7 21.62 7 24 C4.69 24 2.38 24 0 24 C0 16.08 0 8.16 0 0 Z M7 5 C7 7.31 7 9.62 7 12 C8.98 11.67 10.96 11.34 13 11 C13.33 9.68 13.66 8.36 14 7 C11.04622502 4.63019987 11.04622502 4.63019987 7 5 Z " fill="#709A14" transform="translate(745,955)"/>
<path d="M0 0 C2.31 0 4.62 0 7 0 C7 2.97 7 5.94 7 9 C9.64 9 12.28 9 15 9 C15 6.03 15 3.06 15 0 C17.31 0 19.62 0 22 0 C22 7.92 22 15.84 22 24 C19.69 24 17.38 24 15 24 C15 21.03 15 18.06 15 15 C12.36 15 9.72 15 7 15 C7 17.97 7 20.94 7 24 C4.69 24 2.38 24 0 24 C0 16.08 0 8.16 0 0 Z " fill="#709A14" transform="translate(353,955)"/>
<path d="M0 0 C3.5625 1.25 3.5625 1.25 4.73046875 2.875 C5.8206056 5.29554875 6.6948315 7.7407027 7.5625 10.25 C8.47723153 12.56326615 9.39395588 14.8757451 10.3125 17.1875 C12.5625 22.98192771 12.5625 22.98192771 12.5625 25.25 C9.9225 25.25 7.2825 25.25 4.5625 25.25 C4.2325 24.26 3.9025 23.27 3.5625 22.25 C0.5925 22.25 -2.3775 22.25 -5.4375 22.25 C-5.7675 23.24 -6.0975 24.23 -6.4375 25.25 C-8.7475 25.25 -11.0575 25.25 -13.4375 25.25 C-8.84987113 0.64362699 -8.84987113 0.64362699 0 0 Z M-1.4375 7.25 C-2.0975 9.89 -2.7575 12.53 -3.4375 15.25 C-1.7875 15.25 -0.1375 15.25 1.5625 15.25 C1.11546014 10.77116304 1.11546014 10.77116304 -1.4375 7.25 Z " fill="#6F9A14" transform="translate(580.4375,953.75)"/>
<path d="M0 0 C4.40127872 4.28545559 5.87738129 9.62632946 7.75 15.3125 C8.06582031 16.24384766 8.38164063 17.17519531 8.70703125 18.13476562 C9.4805806 20.42025233 10.24454724 22.70848118 11 25 C8.36 25 5.72 25 3 25 C2.67 24.01 2.34 23.02 2 22 C-0.97 22 -3.94 22 -7 22 C-7.33 22.99 -7.66 23.98 -8 25 C-10.64 25 -13.28 25 -16 25 C-14.87942681 21.74845669 -13.75277056 18.49905328 -12.625 15.25 C-12.30789063 14.32960938 -11.99078125 13.40921875 -11.6640625 12.4609375 C-11.3546875 11.57148437 -11.0453125 10.68203125 -10.7265625 9.765625 C-10.30238037 8.54020996 -10.30238037 8.54020996 -9.86962891 7.29003906 C-7.78990646 1.81339771 -6.38830968 -0.91261567 0 0 Z M-3 6 C-3.66 8.97 -4.32 11.94 -5 15 C-3.35 15 -1.7 15 0 15 C-0.66 12.03 -1.32 9.06 -2 6 C-2.33 6 -2.66 6 -3 6 Z " fill="#6F9A14" transform="translate(977,954)"/>
<path d="M0 0 C3.0625 1.125 3.0625 1.125 5.125 4.3125 C5.8103875 5.90016979 6.44934195 7.50806197 7.0625 9.125 C7.50980469 10.30449219 7.95710937 11.48398437 8.41796875 12.69921875 C12.0625 22.55633653 12.0625 22.55633653 12.0625 25.125 C9.7525 25.125 7.4425 25.125 5.0625 25.125 C4.7325 23.805 4.4025 22.485 4.0625 21.125 C0.7625 21.125 -2.5375 21.125 -5.9375 21.125 C-6.2675 22.445 -6.5975 23.765 -6.9375 25.125 C-9.2475 25.125 -11.5575 25.125 -13.9375 25.125 C-7.93584956 0.33769573 -7.93584956 0.33769573 0 0 Z M-1.9375 8.125 C-2.5975 10.435 -3.2575 12.745 -3.9375 15.125 C-1.9575 15.125 0.0225 15.125 2.0625 15.125 C1.4025 12.815 0.7425 10.505 0.0625 8.125 C-0.5975 8.125 -1.2575 8.125 -1.9375 8.125 Z " fill="#6F9A14" transform="translate(725.9375,953.875)"/>
<path d="M0 0 C0.61746094 0.19335938 1.23492188 0.38671875 1.87109375 0.5859375 C4.57358962 1.41684186 7.28422009 2.2136513 10 3 C11.05960938 3.31904297 11.05960938 3.31904297 12.140625 3.64453125 C24.9655646 7.04656676 36.67532791 4.81222777 49 1 C50.33038449 0.6550855 51.66229678 0.31533947 53 0 C52.6169767 2.53342553 52.23640386 3.76417273 50.3984375 5.59765625 C40.62382142 12.67387446 31.74512108 15.01097345 19.703125 13.76171875 C12.53511963 12.50350504 4.6563548 8.75285125 0 3 C0 2.01 0 1.02 0 0 Z " fill="#6E9913" transform="translate(741,843)"/>
<path d="M0 0 C2.31 0 4.62 0 7 0 C7.33 5.61 7.66 11.22 8 17 C9.65 17.33 11.3 17.66 13 18 C14.585869 14.828262 14.37866445 11.36486178 14.5625 7.875 C14.60568359 7.12089844 14.64886719 6.36679687 14.69335938 5.58984375 C14.7994832 3.72678112 14.90025001 1.86341476 15 0 C16.98 0 18.96 0 21 0 C21.10822792 3.06345144 21.18741479 6.1230601 21.25 9.1875 C21.30027344 10.48397461 21.30027344 10.48397461 21.3515625 11.80664062 C21.41612328 16.01923169 21.37995841 18.36592411 19.171875 22.05078125 C16.31319767 24.61639274 14.43856773 24.9675135 10.625 25.25 C6.73600564 24.98179349 5.01621538 24.4129723 2 22 C0.24384901 19.12823941 -0.24309961 17.01697261 -0.1953125 13.671875 C-0.18886719 12.87265625 -0.18242187 12.0734375 -0.17578125 11.25 C-0.15902344 10.425 -0.14226562 9.6 -0.125 8.75 C-0.11597656 7.90953125 -0.10695313 7.0690625 -0.09765625 6.203125 C-0.07415817 4.13529396 -0.03828908 2.06761005 0 0 Z " fill="#709A14" transform="translate(424,955)"/>
<path d="M0 0 C3.5578125 -0.12375 3.5578125 -0.12375 7.1875 -0.25 C7.92508545 -0.28641602 8.6626709 -0.32283203 9.42260742 -0.36035156 C12.92617872 -0.41902041 14.92027205 -0.04682435 17.953125 1.734375 C20.22575016 4.24987613 20.65943385 5.17003717 20.5625 8.5 C20.38419652 11.78510653 20.15563386 12.79248819 18.125 15.5 C14.27661896 18.21650426 11.692242 18.08689337 7 18 C7 19.98 7 21.96 7 24 C4.69 24 2.38 24 0 24 C0 16.08 0 8.16 0 0 Z M7 5 C7 7.31 7 9.62 7 12 C8.65 12 10.3 12 12 12 C12.66 10.68 13.32 9.36 14 8 C12.7511573 6.4166747 12.7511573 6.4166747 11 5 C9.68 5 8.36 5 7 5 Z " fill="#709A14" transform="translate(913,955)"/>
<path d="M0 0 C1.39456452 0.00667256 2.78911118 0.01863093 4.18359375 0.03515625 C4.89451172 0.03966797 5.60542969 0.04417969 6.33789062 0.04882812 C8.09899388 0.06064761 9.86005411 0.07858362 11.62109375 0.09765625 C11.62109375 1.74765625 11.62109375 3.39765625 11.62109375 5.09765625 C5.68109375 5.59265625 5.68109375 5.59265625 -0.37890625 6.09765625 C-0.04890625 6.75765625 0.28109375 7.41765625 0.62109375 8.09765625 C2.74686157 8.56416832 2.74686157 8.56416832 5.18359375 8.72265625 C6.00988281 8.79742188 6.83617187 8.8721875 7.6875 8.94921875 C8.32558594 8.99820313 8.96367188 9.0471875 9.62109375 9.09765625 C9.62109375 11.07765625 9.62109375 13.05765625 9.62109375 15.09765625 C8.66396484 15.17113281 8.66396484 15.17113281 7.6875 15.24609375 C6.86121094 15.32085938 6.03492188 15.395625 5.18359375 15.47265625 C4.35988281 15.54226563 3.53617188 15.611875 2.6875 15.68359375 C1.66462891 15.88855469 1.66462891 15.88855469 0.62109375 16.09765625 C0.29109375 16.75765625 -0.03890625 17.41765625 -0.37890625 18.09765625 C3.58109375 18.42765625 7.54109375 18.75765625 11.62109375 19.09765625 C11.62109375 20.74765625 11.62109375 22.39765625 11.62109375 24.09765625 C9.1829279 24.17862855 6.74744991 24.23812597 4.30859375 24.28515625 C3.2731543 24.32286133 3.2731543 24.32286133 2.21679688 24.36132812 C-2.88733514 24.43530105 -2.88733514 24.43530105 -5.3125 22.76953125 C-6.90709052 20.26958714 -7.13972442 18.02763367 -7.37890625 15.09765625 C-7.05510499 13.76197604 -6.72233074 12.42842614 -6.37890625 11.09765625 C-6.58515625 10.29328125 -6.79140625 9.48890625 -7.00390625 8.66015625 C-7.5071068 5.22161916 -6.36752132 3.85112328 -4.37890625 1.09765625 C-3.37890625 0.09765625 -3.37890625 0.09765625 0 0 Z " fill="#6F9A14" transform="translate(694.37890625,954.90234375)"/>
<path d="M0 0 C0.70189453 0.01353516 1.40378906 0.02707031 2.12695312 0.04101562 C3.85579829 0.07629818 5.58424765 0.13010417 7.3125 0.1875 C7.3125 1.8375 7.3125 3.4875 7.3125 5.1875 C1.3725 5.6825 1.3725 5.6825 -4.6875 6.1875 C-4.3575 6.8475 -4.0275 7.5075 -3.6875 8.1875 C-1.33150765 8.65501788 -1.33150765 8.65501788 1.375 8.8125 C2.75365234 8.92464844 2.75365234 8.92464844 4.16015625 9.0390625 C4.87042969 9.08804688 5.58070313 9.13703125 6.3125 9.1875 C6.3125 11.1675 6.3125 13.1475 6.3125 15.1875 C5.24708984 15.26097656 5.24708984 15.26097656 4.16015625 15.3359375 C3.24105469 15.41070313 2.32195313 15.48546875 1.375 15.5625 C0.45847656 15.63210938 -0.45804688 15.70171875 -1.40234375 15.7734375 C-2.53349609 15.97839844 -2.53349609 15.97839844 -3.6875 16.1875 C-4.0175 16.8475 -4.3475 17.5075 -4.6875 18.1875 C-0.7275 18.5175 3.2325 18.8475 7.3125 19.1875 C7.3125 20.8375 7.3125 22.4875 7.3125 24.1875 C4.87433415 24.2684723 2.43885616 24.32796972 0 24.375 C-1.03543945 24.41270508 -1.03543945 24.41270508 -2.09179688 24.45117188 C-7.23183181 24.52566513 -7.23183181 24.52566513 -9.38598633 22.92700195 C-10.97331119 20.80550699 -11.07357394 19.69063963 -11.0859375 17.0625 C-11.08980469 16.27359375 -11.09367188 15.4846875 -11.09765625 14.671875 C-11.08605469 13.85203125 -11.07445312 13.0321875 -11.0625 12.1875 C-11.07410156 11.36765625 -11.08570313 10.5478125 -11.09765625 9.703125 C-11.09185547 8.51976562 -11.09185547 8.51976562 -11.0859375 7.3125 C-11.08255371 6.59320312 -11.07916992 5.87390625 -11.07568359 5.1328125 C-9.89883959 -0.7647303 -4.95752729 -0.1805262 0 0 Z " fill="#709A14" transform="translate(635.6875,954.8125)"/>
<path d="M0 0 C1.26328125 0.03609375 2.5265625 0.0721875 3.828125 0.109375 C5.27445312 0.17898438 5.27445312 0.17898438 6.75 0.25 C6.75 1.9 6.75 3.55 6.75 5.25 C3.45 5.58 0.15 5.91 -3.25 6.25 C-3.58 7.24 -3.91 8.23 -4.25 9.25 C-0.95 9.25 2.35 9.25 5.75 9.25 C5.75 11.23 5.75 13.21 5.75 15.25 C2.45 15.58 -0.85 15.91 -4.25 16.25 C-3.92 16.91 -3.59 17.57 -3.25 18.25 C-0.89400765 18.71751788 -0.89400765 18.71751788 1.8125 18.875 C2.73160156 18.94976563 3.65070313 19.02453125 4.59765625 19.1015625 C5.30792969 19.15054688 6.01820313 19.19953125 6.75 19.25 C6.75 20.9 6.75 22.55 6.75 24.25 C4.31131832 24.3579859 1.87740867 24.43726589 -0.5625 24.5 C-1.25279297 24.53351562 -1.94308594 24.56703125 -2.65429688 24.6015625 C-7.75572767 24.70014087 -7.75572767 24.70014087 -10.21875 22.45703125 C-11.68199971 19.32545516 -11.43619346 16.66354681 -11.25 13.25 C-11.20760008 10.25684582 -11.20760008 10.25684582 -11.5 7.3125 C-11.25 4.25 -11.25 4.25 -9.6875 2.07421875 C-6.35095667 -0.42284172 -4.11661667 -0.15246728 0 0 Z " fill="#6F9A14" transform="translate(394.25,954.75)"/>
<path d="M0 0 C1.17046875 0.03609375 2.3409375 0.0721875 3.546875 0.109375 C4.43890625 0.15578125 5.3309375 0.2021875 6.25 0.25 C6.25 1.9 6.25 3.55 6.25 5.25 C1.795 5.745 1.795 5.745 -2.75 6.25 C-3.08 7.57 -3.41 8.89 -3.75 10.25 C-0.78 10.25 2.19 10.25 5.25 10.25 C5.25 12.23 5.25 14.21 5.25 16.25 C2.28 16.25 -0.69 16.25 -3.75 16.25 C-3.75 18.89 -3.75 21.53 -3.75 24.25 C-6.06 24.25 -8.37 24.25 -10.75 24.25 C-10.86638036 21.00030231 -10.93730581 17.7511417 -11 14.5 C-11.03351562 13.57960938 -11.06703125 12.65921875 -11.1015625 11.7109375 C-11.19897481 4.98948793 -11.19897481 4.98948793 -9.15625 1.625 C-5.94265802 -0.21133827 -3.6781906 -0.14712762 0 0 Z " fill="#709A13" transform="translate(1030.75,954.75)"/>
<path d="M0 0 C4.95 0 9.9 0 15 0 C15 1.65 15 3.3 15 5 C13.68 5 12.36 5 11 5 C11 9.62 11 14.24 11 19 C12.32 19 13.64 19 15 19 C15 20.65 15 22.3 15 24 C10.05 24 5.1 24 0 24 C0 22.35 0 20.7 0 19 C1.32 19 2.64 19 4 19 C4 14.38 4 9.76 4 5 C2.68 5 1.36 5 0 5 C0 3.35 0 1.7 0 0 Z " fill="#709A14" transform="translate(808,955)"/>
<path d="M0 0 C6.6 0 13.2 0 20 0 C20 1.65 20 3.3 20 5 C18.02 5 16.04 5 14 5 C14 9.62 14 14.24 14 19 C14.99 19 15.98 19 17 19 C17 20.65 17 22.3 17 24 C13.6875 24.25 13.6875 24.25 10 24 C7.23240149 21.53432133 7.00449892 20.05638652 6.70703125 16.328125 C6.72683249 14.96843965 6.76240798 13.6089066 6.8125 12.25 C6.82603516 11.55261719 6.83957031 10.85523438 6.85351562 10.13671875 C6.8887055 8.42414459 6.94250845 6.71197059 7 5 C4.69 5 2.38 5 0 5 C0 3.35 0 1.7 0 0 Z " fill="#6F9A13" transform="translate(598,955)"/>
<path d="M0 0 C6.27 0 12.54 0 19 0 C19 1.65 19 3.3 19 5 C17.02 5 15.04 5 13 5 C13.33 9.29 13.66 13.58 14 18 C14.99 18.33 15.98 18.66 17 19 C17 20.65 17 22.3 17 24 C10.50159236 24.36783439 10.50159236 24.36783439 8.125 22.625 C5.61921381 19.00553106 5.89775288 16.24718353 5.9375 11.875 C5.94652344 10.59367188 5.95554687 9.31234375 5.96484375 7.9921875 C5.97644531 7.00476563 5.98804688 6.01734375 6 5 C4.02 5 2.04 5 0 5 C0 3.35 0 1.7 0 0 Z " fill="#709A14" transform="translate(326,955)"/>
<path d="M0 0 C4.95 0 9.9 0 15 0 C15 1.65 15 3.3 15 5 C13.35 5 11.7 5 10 5 C10 9.62 10 14.24 10 19 C11.65 19 13.3 19 15 19 C15 20.65 15 22.3 15 24 C10.05 24 5.1 24 0 24 C0 22.35 0 20.7 0 19 C1.32 19 2.64 19 4 19 C4 14.38 4 9.76 4 5 C2.68 5 1.36 5 0 5 C0 3.35 0 1.7 0 0 Z " fill="#709A14" transform="translate(502,955)"/>
<path d="M0 0 C6.6 0 13.2 0 20 0 C20 1.65 20 3.3 20 5 C17.69 5 15.38 5 13 5 C13.33 9.29 13.66 13.58 14 18 C14.99 18.33 15.98 18.66 17 19 C17 20.65 17 22.3 17 24 C10.62063407 24.36109618 10.62063407 24.36109618 8.28125 23 C6.24481056 19.82116771 6.68839465 16.45610577 6.8125 12.8125 C6.82603516 12.06291016 6.83957031 11.31332031 6.85351562 10.54101562 C6.88881461 8.69370233 6.94262083 6.84675934 7 5 C4.69 5 2.38 5 0 5 C0 3.35 0 1.7 0 0 Z " fill="#709A14" transform="translate(993,955)"/>
<path d="M0 0 C6.6 0 13.2 0 20 0 C20 1.65 20 3.3 20 5 C17.69 5 15.38 5 13 5 C13.33 9.29 13.66 13.58 14 18 C14.99 18.33 15.98 18.66 17 19 C17 20.65 17 22.3 17 24 C10.62063407 24.36109618 10.62063407 24.36109618 8.28125 23 C6.24481056 19.82116771 6.68839465 16.45610577 6.8125 12.8125 C6.82603516 12.06291016 6.83957031 11.31332031 6.85351562 10.54101562 C6.88881461 8.69370233 6.94262083 6.84675934 7 5 C4.69 5 2.38 5 0 5 C0 3.35 0 1.7 0 0 Z " fill="#709A14" transform="translate(475,955)"/>
<path d="M0 0 C2.31 0 4.62 0 7 0 C7.33 5.94 7.66 11.88 8 18 C10.31 18.33 12.62 18.66 15 19 C15 20.65 15 22.3 15 24 C13.06372231 24.10807131 11.12572244 24.1856225 9.1875 24.25 C7.56908203 24.31960938 7.56908203 24.31960938 5.91796875 24.390625 C3 24 3 24 1.3359375 22.2734375 C-0.2002099 19.65929192 -0.35077104 18.24009429 -0.29296875 15.234375 C-0.28330078 14.34492187 -0.27363281 13.45546875 -0.26367188 12.5390625 C-0.23853516 11.61867188 -0.21339844 10.69828125 -0.1875 9.75 C-0.16719727 8.34621094 -0.16719727 8.34621094 -0.14648438 6.9140625 C-0.11119954 4.60878673 -0.06190281 2.3046894 0 0 Z " fill="#6F9A13" transform="translate(941,955)"/>
<path d="M0 0 C2.31 0 4.62 0 7 0 C7.33 5.94 7.66 11.88 8 18 C10.31 18.33 12.62 18.66 15 19 C15 20.65 15 22.3 15 24 C13.25138208 24.10853491 11.50080759 24.18583428 9.75 24.25 C8.77546875 24.29640625 7.8009375 24.3428125 6.796875 24.390625 C4 24 4 24 1.65625 22.625 C-0.94028221 18.5097414 -0.42308863 14.50328019 -0.25 9.75 C-0.23195313 8.81414063 -0.21390625 7.87828125 -0.1953125 6.9140625 C-0.14825673 4.60832985 -0.08253713 2.30469055 0 0 Z " fill="#709A14" transform="translate(454,955)"/>
<path d="M0 0 C1.98 0 3.96 0 6 0 C6.33 5.94 6.66 11.88 7 18 C9.64 18.33 12.28 18.66 15 19 C15 20.65 15 22.3 15 24 C13.06318839 24.08107583 11.1254066 24.13922475 9.1875 24.1875 C8.10855469 24.22230469 7.02960937 24.25710938 5.91796875 24.29296875 C3 24 3 24 1.3359375 22.78710938 C-0.42262154 20.43465101 -0.34599157 19.02953642 -0.29296875 16.11328125 C-0.28330078 15.17548828 -0.27363281 14.23769531 -0.26367188 13.27148438 C-0.23853516 12.29501953 -0.21339844 11.31855469 -0.1875 10.3125 C-0.17396484 9.32443359 -0.16042969 8.33636719 -0.14648438 7.31835938 C-0.11112203 4.87835769 -0.06177033 2.43945281 0 0 Z " fill="#709A14" transform="translate(666,955)"/>
</svg>
